<?xml version="1.0" encoding="UTF-8"?>
<svg id="_レイヤー_2" data-name="レイヤー 2" xmlns="http://www.w3.org/2000/svg" viewBox="0 0 301.25 287.96">
  <defs>
    <style>
      .cls-1 {
        fill: #19b4f2;
      }

      .cls-2 {
        fill: #2864c6;
      }
    </style>
  </defs>
  <g id="_レイヤー_1-2" data-name="レイヤー 1">
    <g>
      <path class="cls-2" d="M129.39,212.48c-.15,0-.31,0-.46,0-26.62-.99-50.77-22.5-64.6-57.56-14.62-37.05-5.99-70.39,21.48-82.97,16.24-7.43,33.99-6.26,48.7,3.21,14,9.01,22.68,24.06,22.64,39.27-.02,6.78-5.52,12.26-12.29,12.26h-.03c-6.79-.02-12.28-5.53-12.26-12.32.02-6.81-4.45-14.09-11.37-18.55-4.42-2.85-13.58-6.83-25.17-1.52-18.26,8.36-16.18,33.02-8.85,51.59,9.99,25.32,26.34,41.42,42.65,42.03,6.78.25,12.08,5.95,11.83,12.74-.25,6.63-5.7,11.84-12.27,11.84Z"/>
      <path class="cls-2" d="M280.84,287.43c-7.13-2.28-11.57-7.76-17.9-15.84-9.97-12.72-14.96-20.44-35.93-40.15-18.36-17.24-24.52-24.03-37.42-33.87-6.83-5.21-7.45-16.55-2.25-23.38,5.21-6.83,14.45-7.39,21.79-2.94,14.88,9.03,21.28,15.17,40.35,33.09,11.78,11.06,37.12,32.07,48.71,54.9,5.64,11.1,3.06,22.85-4.93,26.93-3.19,1.63-7.25,2.36-12.44,1.26Z"/>
      <path class="cls-1" d="M158.6,44.5c10.03,12.03,14.63,27.37,14.63,40.3,0,37-.1,52.43-.1,80.18l25.51-35.21s-.48-19.43-.48-46.5c0-20.1-24.76-35.15-39.56-38.77Z"/>
      <ellipse class="cls-2" cx="126.54" cy="189.16" rx="17.11" ry="23.29" transform="translate(-59.79 58.48) rotate(-21.18)"/>
      <path class="cls-2" d="M285.85,81.27c-9.49-9.71-24.79-3.39-34.69,4.44s-25.37,19.89-64.24,83.88c-17.86,29.4-29.78,60.93-40.57,80.18-6.68,10.61-14.91,21.65-40.42,28.6,6.72,1.87,13.92,2.94,21.63,2.94,46.48,0,58.71-28.27,80.17-76.39,18.59-41.69,50.5-72.88,71.95-94.91,10.56-10.85,12.37-22.39,6.18-28.73Z"/>
      <path class="cls-2" d="M170.2,19.94C135.25-6.66,87.19-2.3,65.98,8.1,43.11,19.31,14.51,40.29,7.13,77.6c-2.51,16.36.18,26.52,7.89,38.18,4.18,6.31,8.51,10.4,12.81,14.38-1.03-7.74-1.4-16.01-.89-24.93,2.04-35.3,27.83-75.08,75.55-80.66,7.98-.93,16.59-.75,22.64-.11,12.88,1.59,43.26,3.81,67.27,28.6-5.06-17.01-13.78-26.71-22.2-33.12Z"/>
      <path class="cls-1" d="M57.28,200.4c-9.41-13.98-18.42-33.41-23.7-43.3-6.69-12.46-13.94-17.17-23.16-29.19-4.82-6.28-8.75-17.04-9.76-21.99-4.51,48.15,15.07,74.78,34.08,107.55,8.98,15.48,19.32,35.02,44.95,50.4,17.98,6.87,33.88.75,43.77-6.53-8.97-.22-17.33-3.31-24.75-8.09-16.87-10.88-26.45-26.62-41.42-48.85Z"/>
    </g>
  </g>
</svg>